<svg xmlns="http://www.w3.org/2000/svg" xmlns:xlink="http://www.w3.org/1999/xlink" width="1000" height="600" viewBox="0 0 1000 600"><ellipse cx="400" cy="455" fill="#d3d3d3" rx="90" ry="25"/><circle cx="400" cy="300" r="160" fill="orange"/><circle cx="380" cy="260" r="80" fill="#fff"/><circle cx="450" cy="260" r="80" fill="#fff"/><circle cx="405" cy="260" r="10"/><circle cx="475" cy="260" r="10"/><circle cx="425" cy="335" r="15"/><ellipse cx="400" cy="400" fill="red" rx="20" ry="9"/><path fill="orange" d="M270 140v70l80-60z"/><path d="M280 150v50l60-40z"/><path fill="orange" d="m470 110 30 70-90-30z"/><path d="m465 120 25 50-55-30z"/><ellipse cx="270" cy="290" fill="orange" rx="120" ry="40" transform="rotate(15)"/><path fill="#fff" d="m75 320 45-15-10 55z"/><ellipse cx="800" cy="455" fill="#d3d3d3" rx="90" ry="25"/><circle cx="800" cy="300" r="160" fill="#ff0"/><circle cx="750" cy="260" r="80" fill="#fff"/><circle cx="820" cy="260" r="80" fill="#fff"/><circle cx="720" cy="260" r="10"/><circle cx="790" cy="260" r="10"/><ellipse cx="780" cy="390" fill="red" rx="9" ry="20"/></svg>